<svg id="Police_bleu" data-name="Police bleu" xmlns="http://www.w3.org/2000/svg" viewBox="0 0 437.56 80.56"><defs><style>.cls-1{font-size:72px;stroke:#372f84;stroke-miterlimit:10;font-family:PollyRounded-Bold, Polly Rounded;font-weight:700;letter-spacing:0.05em;}.cls-1,.cls-4{fill:#372f84;}.cls-2,.cls-3{font-size:48px;}.cls-2{letter-spacing:0.05em;}.cls-3{letter-spacing:0.05em;}.cls-5{fill:#e9a93e;}</style></defs><g id="Le_blog" data-name="Le blog"><text class="cls-1" transform="translate(101.07 60.98)">Le<tspan class="cls-2" x="100.51" y="0"> </tspan><tspan x="131.71" y="0">blog</tspan><tspan class="cls-3" x="304.8" y="0"> </tspan></text><path class="cls-4" d="M751.8,516.44s.05,0,0,0c-7.62,0-16.57,6.76-12.95,21.41A21.48,21.48,0,0,0,744,547.5,16.91,16.91,0,0,0,757.9,553,16.64,16.64,0,0,0,770,546.65a12.05,12.05,0,0,0,2.17-11.47,10.75,10.75,0,0,0-10.09-7.57l-1,0c-2.33.15-3.12,1.52-3.32,2.47a2.17,2.17,0,0,0,2.31,2.6l.26,0a5.11,5.11,0,0,1,5.22,5.53,7.66,7.66,0,0,1-3.91,6.4,10.24,10.24,0,0,1-9.34.55A13.59,13.59,0,0,1,744,534.5c-1-9.26,3.29-14.83,7.88-18.08" transform="translate(-734.22 -499.89)"/><path class="cls-5" d="M734.22,535.42a26.51,26.51,0,0,0,3.38,13A25.21,25.21,0,0,0,771.83,558l.12-.07c6.87-3.87,13.62-11.46,10-26.11a21.48,21.48,0,0,0-5.16-9.65,16.88,16.88,0,0,0-13.89-5.51A16.6,16.6,0,0,0,750.8,523a12,12,0,0,0-2.18,11.46A10.75,10.75,0,0,0,758.71,542l1,0c2.33-.15,3.12-1.52,3.32-2.47a2.17,2.17,0,0,0-2.31-2.6l-.26,0a5.11,5.11,0,0,1-5.22-5.53,7.69,7.69,0,0,1,3.91-6.41,10.27,10.27,0,0,1,9.34-.54,13.59,13.59,0,0,1,8.28,10.67c1,9.26-3.29,14.83-7.88,18.07-6,4.25-14.14,5.08-20.48,1.46-10.84-6.18-13.75-15.07-14.21-20C734.23,534.94,734.22,535.18,734.22,535.42Z" transform="translate(-734.22 -499.89)"/></g></svg>